<mxfile host="app.diagrams.net" modified="2023-09-26T03:49:41.972Z" agent="Mozilla/5.0 (Windows NT 10.0; Win64; x64) AppleWebKit/537.36 (KHTML, like Gecko) Chrome/116.0.0.0 Safari/537.36" etag="wt0tBa7HOtOVSHeW60T0" version="21.8.2" type="github">
  <diagram name="Page-1" id="ad52d381-51e7-2e0d-a935-2d0ddd2fd229">
    <mxGraphModel dx="990" dy="480" grid="1" gridSize="10" guides="1" tooltips="1" connect="1" arrows="1" fold="1" page="1" pageScale="1" pageWidth="1100" pageHeight="850" background="none" math="0" shadow="0">
      <root>
        <mxCell id="0" />
        <mxCell id="1" parent="0" />
        <mxCell id="2c924340bb9dbf6c-2" value="áreas de interes SRE" style="ellipse;whiteSpace=wrap;html=1;rounded=1;shadow=1;comic=0;labelBackgroundColor=none;strokeWidth=2;fontFamily=Verdana;fontSize=12;align=center;fillColor=#d5e8d4;strokeColor=#82b366;" parent="1" vertex="1">
          <mxGeometry x="260" y="230" width="120" height="80" as="geometry" />
        </mxCell>
        <mxCell id="2c924340bb9dbf6c-3" value="&amp;nbsp; &amp;nbsp; &amp;nbsp; &amp;nbsp;requisitos&amp;nbsp; &amp;nbsp; &amp;nbsp; &amp;nbsp; &amp;nbsp; &amp;nbsp; &amp;nbsp; funcionales&amp;nbsp; &amp;nbsp; &amp;nbsp; &amp;nbsp; Qué debe hacer el sistema&amp;nbsp;" style="ellipse;whiteSpace=wrap;html=1;rounded=1;shadow=1;comic=0;labelBackgroundColor=none;strokeWidth=2;fontFamily=Verdana;fontSize=12;align=center;" parent="1" vertex="1">
          <mxGeometry x="650" y="230" width="120" height="80" as="geometry" />
        </mxCell>
        <mxCell id="2c924340bb9dbf6c-4" value="software requirements specification SRE" style="ellipse;whiteSpace=wrap;html=1;rounded=1;shadow=1;comic=0;labelBackgroundColor=none;strokeWidth=2;fontFamily=Verdana;fontSize=12;align=center;" parent="1" vertex="1">
          <mxGeometry x="530" y="380" width="120" height="120" as="geometry" />
        </mxCell>
        <mxCell id="2c924340bb9dbf6c-5" value="&amp;nbsp; &amp;nbsp; requisitos no&amp;nbsp; &amp;nbsp; &amp;nbsp; &amp;nbsp; &amp;nbsp; &amp;nbsp; &amp;nbsp;funcionale&amp;nbsp; &amp;nbsp; &amp;nbsp; &amp;nbsp;Cómo debe Hacer el sistema&amp;nbsp;" style="ellipse;whiteSpace=wrap;html=1;rounded=1;shadow=1;comic=0;labelBackgroundColor=none;strokeWidth=2;fontFamily=Verdana;fontSize=12;align=center;" parent="1" vertex="1">
          <mxGeometry x="660" y="540" width="120" height="80" as="geometry" />
        </mxCell>
        <mxCell id="2c924340bb9dbf6c-6" value="los métodos de documentación de requisitos" style="ellipse;whiteSpace=wrap;html=1;rounded=1;shadow=1;comic=0;labelBackgroundColor=none;strokeWidth=2;fontFamily=Verdana;fontSize=12;align=center;" parent="1" vertex="1">
          <mxGeometry x="260" y="440" width="120" height="80" as="geometry" />
        </mxCell>
        <mxCell id="2c924340bb9dbf6c-7" value="las técnicas de recopilación de requisitos" style="ellipse;whiteSpace=wrap;html=1;rounded=1;shadow=1;comic=0;labelBackgroundColor=none;strokeWidth=2;fontFamily=Verdana;fontSize=12;align=center;" parent="1" vertex="1">
          <mxGeometry x="440" y="600" width="120" height="80" as="geometry" />
        </mxCell>
        <mxCell id="2c924340bb9dbf6c-9" value="Pruebas" style="whiteSpace=wrap;html=1;rounded=1;shadow=1;comic=0;labelBackgroundColor=none;strokeWidth=2;fontFamily=Verdana;fontSize=12;align=center;arcSize=50;" parent="1" vertex="1">
          <mxGeometry x="110" y="210" width="100" height="20" as="geometry" />
        </mxCell>
        <mxCell id="2c924340bb9dbf6c-10" value="Comunicación y comprensión" style="whiteSpace=wrap;html=1;rounded=1;shadow=1;comic=0;labelBackgroundColor=none;strokeWidth=2;fontFamily=Verdana;fontSize=12;align=center;arcSize=50;" parent="1" vertex="1">
          <mxGeometry x="320" y="150" width="130" height="30" as="geometry" />
        </mxCell>
        <mxCell id="2c924340bb9dbf6c-11" value="Requisitos de entrada" style="whiteSpace=wrap;html=1;rounded=1;shadow=1;comic=0;labelBackgroundColor=none;strokeWidth=2;fontFamily=Verdana;fontSize=12;align=center;arcSize=50;" parent="1" vertex="1">
          <mxGeometry x="570" y="170" width="100" height="30" as="geometry" />
        </mxCell>
        <mxCell id="2c924340bb9dbf6c-13" value="Requisitos de usabilidad" style="whiteSpace=wrap;html=1;rounded=1;shadow=1;comic=0;labelBackgroundColor=none;strokeWidth=2;fontFamily=Verdana;fontSize=12;align=center;arcSize=50;" parent="1" vertex="1">
          <mxGeometry x="860" y="520" width="100" height="30" as="geometry" />
        </mxCell>
        <mxCell id="2c924340bb9dbf6c-14" value="Requisitos de salida" style="whiteSpace=wrap;html=1;rounded=1;shadow=1;comic=0;labelBackgroundColor=none;strokeWidth=2;fontFamily=Verdana;fontSize=12;align=center;arcSize=50;" parent="1" vertex="1">
          <mxGeometry x="660" y="130" width="100" height="30" as="geometry" />
        </mxCell>
        <mxCell id="2c924340bb9dbf6c-15" value="Requisitos de procesamiento" style="whiteSpace=wrap;html=1;rounded=1;shadow=1;comic=0;labelBackgroundColor=none;strokeWidth=2;fontFamily=Verdana;fontSize=12;align=center;arcSize=50;" parent="1" vertex="1">
          <mxGeometry x="770" y="150" width="100" height="30" as="geometry" />
        </mxCell>
        <mxCell id="2c924340bb9dbf6c-16" value="Requisitos de interfaz" style="whiteSpace=wrap;html=1;rounded=1;shadow=1;comic=0;labelBackgroundColor=none;strokeWidth=2;fontFamily=Verdana;fontSize=12;align=center;arcSize=50;" parent="1" vertex="1">
          <mxGeometry x="820" y="210" width="100" height="30" as="geometry" />
        </mxCell>
        <mxCell id="2c924340bb9dbf6c-22" value="&lt;span&gt;Topic 20&lt;/span&gt;" style="whiteSpace=wrap;html=1;rounded=1;shadow=1;comic=0;labelBackgroundColor=none;strokeWidth=2;fontFamily=Verdana;fontSize=12;align=center;arcSize=50;" parent="1" vertex="1">
          <mxGeometry x="870" y="660" width="100" height="20" as="geometry" />
        </mxCell>
        <mxCell id="2c924340bb9dbf6c-27" value="relation" style="edgeStyle=none;rounded=1;html=1;labelBackgroundColor=none;startArrow=none;startFill=0;startSize=5;endArrow=classicThin;endFill=1;endSize=5;jettySize=auto;orthogonalLoop=1;strokeColor=#B3B3B3;strokeWidth=1;fontFamily=Verdana;fontSize=12" parent="1" source="2c924340bb9dbf6c-2" target="2c924340bb9dbf6c-10" edge="1">
          <mxGeometry relative="1" as="geometry" />
        </mxCell>
        <mxCell id="2c924340bb9dbf6c-28" value="relation" style="edgeStyle=none;rounded=1;html=1;labelBackgroundColor=none;startArrow=none;startFill=0;startSize=5;endArrow=classicThin;endFill=1;endSize=5;jettySize=auto;orthogonalLoop=1;strokeColor=#B3B3B3;strokeWidth=1;fontFamily=Verdana;fontSize=12" parent="1" source="2c924340bb9dbf6c-2" edge="1">
          <mxGeometry relative="1" as="geometry">
            <mxPoint x="208.57142857142867" y="210" as="targetPoint" />
          </mxGeometry>
        </mxCell>
        <mxCell id="2c924340bb9dbf6c-31" value="relation" style="edgeStyle=none;rounded=1;html=1;labelBackgroundColor=none;startArrow=none;startFill=0;startSize=5;endArrow=classicThin;endFill=1;endSize=5;jettySize=auto;orthogonalLoop=1;strokeColor=#B3B3B3;strokeWidth=1;fontFamily=Verdana;fontSize=12" parent="1" source="2c924340bb9dbf6c-4" target="2c924340bb9dbf6c-2" edge="1">
          <mxGeometry relative="1" as="geometry" />
        </mxCell>
        <mxCell id="2c924340bb9dbf6c-32" value="relation" style="edgeStyle=none;rounded=1;html=1;labelBackgroundColor=none;startArrow=none;startFill=0;startSize=5;endArrow=classicThin;endFill=1;endSize=5;jettySize=auto;orthogonalLoop=1;strokeColor=#B3B3B3;strokeWidth=1;fontFamily=Verdana;fontSize=12" parent="1" source="2c924340bb9dbf6c-4" target="2c924340bb9dbf6c-3" edge="1">
          <mxGeometry relative="1" as="geometry" />
        </mxCell>
        <mxCell id="2c924340bb9dbf6c-33" value="relation" style="edgeStyle=none;rounded=1;html=1;labelBackgroundColor=none;startArrow=none;startFill=0;startSize=5;endArrow=classicThin;endFill=1;endSize=5;jettySize=auto;orthogonalLoop=1;strokeColor=#B3B3B3;strokeWidth=1;fontFamily=Verdana;fontSize=12" parent="1" source="2c924340bb9dbf6c-4" target="2c924340bb9dbf6c-5" edge="1">
          <mxGeometry relative="1" as="geometry" />
        </mxCell>
        <mxCell id="2c924340bb9dbf6c-35" value="relation" style="edgeStyle=none;rounded=1;html=1;labelBackgroundColor=none;startArrow=none;startFill=0;startSize=5;endArrow=classicThin;endFill=1;endSize=5;jettySize=auto;orthogonalLoop=1;strokeColor=#B3B3B3;strokeWidth=1;fontFamily=Verdana;fontSize=12;exitX=0.375;exitY=1.017;exitDx=0;exitDy=0;exitPerimeter=0;" parent="1" source="2c924340bb9dbf6c-4" target="2c924340bb9dbf6c-7" edge="1">
          <mxGeometry relative="1" as="geometry" />
        </mxCell>
        <mxCell id="2c924340bb9dbf6c-36" value="relation" style="edgeStyle=none;rounded=1;html=1;labelBackgroundColor=none;startArrow=none;startFill=0;startSize=5;endArrow=classicThin;endFill=1;endSize=5;jettySize=auto;orthogonalLoop=1;strokeColor=#B3B3B3;strokeWidth=1;fontFamily=Verdana;fontSize=12;exitX=0.967;exitY=0.3;exitDx=0;exitDy=0;exitPerimeter=0;" parent="1" source="2c924340bb9dbf6c-4" edge="1">
          <mxGeometry relative="1" as="geometry">
            <mxPoint x="940" y="310" as="targetPoint" />
          </mxGeometry>
        </mxCell>
        <mxCell id="2c924340bb9dbf6c-37" value="relation" style="edgeStyle=none;rounded=1;html=1;labelBackgroundColor=none;startArrow=none;startFill=0;startSize=5;endArrow=classicThin;endFill=1;endSize=5;jettySize=auto;orthogonalLoop=1;strokeColor=#B3B3B3;strokeWidth=1;fontFamily=Verdana;fontSize=12;entryX=1;entryY=0.5;entryDx=0;entryDy=0;" parent="1" target="2c924340bb9dbf6c-5" edge="1">
          <mxGeometry x="0.1974" y="-225" relative="1" as="geometry">
            <mxPoint x="870" y="550" as="sourcePoint" />
            <mxPoint as="offset" />
          </mxGeometry>
        </mxCell>
        <mxCell id="2c924340bb9dbf6c-38" value="relation" style="edgeStyle=none;rounded=1;html=1;labelBackgroundColor=none;startArrow=none;startFill=0;startSize=5;endArrow=classicThin;endFill=1;endSize=5;jettySize=auto;orthogonalLoop=1;strokeColor=#B3B3B3;strokeWidth=1;fontFamily=Verdana;fontSize=12;entryX=0.933;entryY=0.813;entryDx=0;entryDy=0;entryPerimeter=0;exitX=0;exitY=0.5;exitDx=0;exitDy=0;" parent="1" source="2c924340bb9dbf6c-12" target="2c924340bb9dbf6c-5" edge="1">
          <mxGeometry relative="1" as="geometry" />
        </mxCell>
        <mxCell id="2c924340bb9dbf6c-43" value="relation" style="edgeStyle=none;rounded=1;html=1;labelBackgroundColor=none;startArrow=none;startFill=0;startSize=5;endArrow=classicThin;endFill=1;endSize=5;jettySize=auto;orthogonalLoop=1;strokeColor=#B3B3B3;strokeWidth=1;fontFamily=Verdana;fontSize=12" parent="1" source="2c924340bb9dbf6c-3" target="2c924340bb9dbf6c-16" edge="1">
          <mxGeometry relative="1" as="geometry" />
        </mxCell>
        <mxCell id="2c924340bb9dbf6c-44" value="relation" style="edgeStyle=none;rounded=1;html=1;labelBackgroundColor=none;startArrow=none;startFill=0;startSize=5;endArrow=classicThin;endFill=1;endSize=5;jettySize=auto;orthogonalLoop=1;strokeColor=#B3B3B3;strokeWidth=1;fontFamily=Verdana;fontSize=12" parent="1" source="2c924340bb9dbf6c-3" target="2c924340bb9dbf6c-15" edge="1">
          <mxGeometry relative="1" as="geometry" />
        </mxCell>
        <mxCell id="2c924340bb9dbf6c-45" value="relation" style="edgeStyle=none;rounded=1;html=1;labelBackgroundColor=none;startArrow=none;startFill=0;startSize=5;endArrow=classicThin;endFill=1;endSize=5;jettySize=auto;orthogonalLoop=1;strokeColor=#B3B3B3;strokeWidth=1;fontFamily=Verdana;fontSize=12" parent="1" source="2c924340bb9dbf6c-3" target="2c924340bb9dbf6c-14" edge="1">
          <mxGeometry relative="1" as="geometry" />
        </mxCell>
        <mxCell id="2c924340bb9dbf6c-46" value="relation" style="edgeStyle=none;rounded=1;html=1;labelBackgroundColor=none;startArrow=none;startFill=0;startSize=5;endArrow=classicThin;endFill=1;endSize=5;jettySize=auto;orthogonalLoop=1;strokeColor=#B3B3B3;strokeWidth=1;fontFamily=Verdana;fontSize=12" parent="1" source="2c924340bb9dbf6c-3" target="2c924340bb9dbf6c-11" edge="1">
          <mxGeometry relative="1" as="geometry" />
        </mxCell>
        <mxCell id="2c924340bb9dbf6c-52" value="pasos del proceso de recopilación de requisitos" style="ellipse;whiteSpace=wrap;html=1;rounded=1;shadow=1;comic=0;labelBackgroundColor=none;strokeWidth=2;fontFamily=Verdana;fontSize=12;align=center;" parent="1" vertex="1">
          <mxGeometry x="940" y="270" width="120" height="80" as="geometry" />
        </mxCell>
        <mxCell id="2c924340bb9dbf6c-54" value="Requisitos de seguridad" style="whiteSpace=wrap;html=1;rounded=1;shadow=1;comic=0;labelBackgroundColor=none;strokeWidth=2;fontFamily=Verdana;fontSize=12;align=center;arcSize=50;" parent="1" vertex="1">
          <mxGeometry x="770" y="480" width="100" height="30" as="geometry" />
        </mxCell>
        <mxCell id="2c924340bb9dbf6c-55" value="Análisis" style="whiteSpace=wrap;html=1;rounded=1;shadow=1;comic=0;labelBackgroundColor=none;strokeWidth=2;fontFamily=Verdana;fontSize=12;align=center;arcSize=50;" parent="1" vertex="1">
          <mxGeometry x="440" y="300" width="100" height="20" as="geometry" />
        </mxCell>
        <mxCell id="2c924340bb9dbf6c-56" value="Documentación" style="whiteSpace=wrap;html=1;rounded=1;shadow=1;comic=0;labelBackgroundColor=none;strokeWidth=2;fontFamily=Verdana;fontSize=12;align=center;arcSize=50;" parent="1" vertex="1">
          <mxGeometry x="270" y="360" width="100" height="20" as="geometry" />
        </mxCell>
        <mxCell id="2c924340bb9dbf6c-59" value="&lt;span&gt;Topic 18&lt;/span&gt;" style="whiteSpace=wrap;html=1;rounded=1;shadow=1;comic=0;labelBackgroundColor=none;strokeWidth=2;fontFamily=Verdana;fontSize=12;align=center;arcSize=50;" parent="1" vertex="1">
          <mxGeometry x="490" y="730" width="100" height="20" as="geometry" />
        </mxCell>
        <mxCell id="2c924340bb9dbf6c-61" value="relation" style="edgeStyle=none;rounded=1;html=1;labelBackgroundColor=none;startArrow=none;startFill=0;startSize=5;endArrow=classicThin;endFill=1;endSize=5;jettySize=auto;orthogonalLoop=1;strokeColor=#B3B3B3;strokeWidth=1;fontFamily=Verdana;fontSize=12" parent="1" source="2c924340bb9dbf6c-2" target="2c924340bb9dbf6c-55" edge="1">
          <mxGeometry relative="1" as="geometry" />
        </mxCell>
        <mxCell id="2c924340bb9dbf6c-62" value="relation" style="edgeStyle=none;rounded=1;html=1;labelBackgroundColor=none;startArrow=none;startFill=0;startSize=5;endArrow=classicThin;endFill=1;endSize=5;jettySize=auto;orthogonalLoop=1;strokeColor=#B3B3B3;strokeWidth=1;fontFamily=Verdana;fontSize=12" parent="1" source="2c924340bb9dbf6c-2" target="2c924340bb9dbf6c-56" edge="1">
          <mxGeometry relative="1" as="geometry" />
        </mxCell>
        <mxCell id="2c924340bb9dbf6c-65" value="relation" style="edgeStyle=none;rounded=1;html=1;labelBackgroundColor=none;startArrow=none;startFill=0;startSize=5;endArrow=classicThin;endFill=1;endSize=5;jettySize=auto;orthogonalLoop=1;strokeColor=#B3B3B3;strokeWidth=1;fontFamily=Verdana;fontSize=12;exitX=0.42;exitY=0.95;exitDx=0;exitDy=0;exitPerimeter=0;entryX=1;entryY=0;entryDx=0;entryDy=0;" parent="1" source="2c924340bb9dbf6c-54" target="2c924340bb9dbf6c-5" edge="1">
          <mxGeometry relative="1" as="geometry">
            <mxPoint x="820" y="460" as="sourcePoint" />
            <mxPoint x="730" y="530" as="targetPoint" />
          </mxGeometry>
        </mxCell>
        <mxCell id="2c924340bb9dbf6c-66" value="relation" style="edgeStyle=none;rounded=1;html=1;labelBackgroundColor=none;startArrow=none;startFill=0;startSize=5;endArrow=classicThin;endFill=1;endSize=5;jettySize=auto;orthogonalLoop=1;strokeColor=#B3B3B3;strokeWidth=1;fontFamily=Verdana;fontSize=12" parent="1" source="2c924340bb9dbf6c-53" target="2c924340bb9dbf6c-5" edge="1">
          <mxGeometry relative="1" as="geometry">
            <mxPoint x="742.5" y="490" as="sourcePoint" />
          </mxGeometry>
        </mxCell>
        <mxCell id="2c924340bb9dbf6c-78" value="relation" style="edgeStyle=none;rounded=1;html=1;labelBackgroundColor=none;startArrow=none;startFill=0;startSize=5;endArrow=classicThin;endFill=1;endSize=5;jettySize=auto;orthogonalLoop=1;strokeColor=#B3B3B3;strokeWidth=1;fontFamily=Verdana;fontSize=12" parent="1" source="2c924340bb9dbf6c-7" target="2c924340bb9dbf6c-59" edge="1">
          <mxGeometry relative="1" as="geometry" />
        </mxCell>
        <mxCell id="63e8v3MuR3NFdhU_vIlD-1" value="software requirements specification SRE" style="text;strokeColor=none;fillColor=none;html=1;fontSize=24;fontStyle=1;verticalAlign=middle;align=center;" vertex="1" parent="1">
          <mxGeometry x="420" width="100" height="40" as="geometry" />
        </mxCell>
        <mxCell id="63e8v3MuR3NFdhU_vIlD-4" value="" style="edgeStyle=none;rounded=1;html=1;labelBackgroundColor=none;startArrow=none;startFill=0;startSize=5;endArrow=classicThin;endFill=1;endSize=5;jettySize=auto;orthogonalLoop=1;strokeColor=#B3B3B3;strokeWidth=1;fontFamily=Verdana;fontSize=12" edge="1" parent="1" target="2c924340bb9dbf6c-53">
          <mxGeometry relative="1" as="geometry">
            <mxPoint x="742.5" y="490" as="sourcePoint" />
            <mxPoint x="712" y="543" as="targetPoint" />
          </mxGeometry>
        </mxCell>
        <mxCell id="2c924340bb9dbf6c-53" value="Requisitos de rendimiento" style="whiteSpace=wrap;html=1;rounded=1;shadow=1;comic=0;labelBackgroundColor=none;strokeWidth=2;fontFamily=Verdana;fontSize=12;align=center;arcSize=50;" parent="1" vertex="1">
          <mxGeometry x="670" y="450" width="100" height="30" as="geometry" />
        </mxCell>
        <mxCell id="2c924340bb9dbf6c-12" value="Requisitos de mantenimiento" style="whiteSpace=wrap;html=1;rounded=1;shadow=1;comic=0;labelBackgroundColor=none;strokeWidth=2;fontFamily=Verdana;fontSize=12;align=center;arcSize=50;" parent="1" vertex="1">
          <mxGeometry x="870" y="580" width="100" height="30" as="geometry" />
        </mxCell>
        <mxCell id="63e8v3MuR3NFdhU_vIlD-6" value="relation" style="edgeStyle=none;rounded=1;html=1;labelBackgroundColor=none;startArrow=none;startFill=0;startSize=5;endArrow=classicThin;endFill=1;endSize=5;jettySize=auto;orthogonalLoop=1;strokeColor=#B3B3B3;strokeWidth=1;fontFamily=Verdana;fontSize=12;entryX=0.667;entryY=1.063;entryDx=0;entryDy=0;entryPerimeter=0;exitX=0.69;exitY=0.1;exitDx=0;exitDy=0;exitPerimeter=0;" edge="1" parent="1" source="2c924340bb9dbf6c-22" target="2c924340bb9dbf6c-5">
          <mxGeometry relative="1" as="geometry">
            <mxPoint x="880" y="610" as="sourcePoint" />
            <mxPoint x="782" y="615" as="targetPoint" />
            <Array as="points">
              <mxPoint x="810" y="640" />
            </Array>
          </mxGeometry>
        </mxCell>
        <mxCell id="63e8v3MuR3NFdhU_vIlD-21" value="&lt;span&gt;Topic 19&lt;/span&gt;" style="whiteSpace=wrap;html=1;rounded=1;shadow=1;comic=0;labelBackgroundColor=none;strokeWidth=2;fontFamily=Verdana;fontSize=12;align=center;arcSize=50;" vertex="1" parent="1">
          <mxGeometry x="620" y="690" width="100" height="20" as="geometry" />
        </mxCell>
        <mxCell id="63e8v3MuR3NFdhU_vIlD-22" value="relation" style="edgeStyle=none;rounded=1;html=1;labelBackgroundColor=none;startArrow=none;startFill=0;startSize=5;endArrow=classicThin;endFill=1;endSize=5;jettySize=auto;orthogonalLoop=1;strokeColor=#B3B3B3;strokeWidth=1;fontFamily=Verdana;fontSize=12" edge="1" parent="1" target="63e8v3MuR3NFdhU_vIlD-21">
          <mxGeometry x="0.0068" relative="1" as="geometry">
            <mxPoint x="730" y="650" as="sourcePoint" />
            <mxPoint as="offset" />
          </mxGeometry>
        </mxCell>
        <mxCell id="63e8v3MuR3NFdhU_vIlD-23" value="&lt;span&gt;Topic 19&lt;/span&gt;" style="whiteSpace=wrap;html=1;rounded=1;shadow=1;comic=0;labelBackgroundColor=none;strokeWidth=2;fontFamily=Verdana;fontSize=12;align=center;arcSize=50;" vertex="1" parent="1">
          <mxGeometry x="730" y="760" width="100" height="20" as="geometry" />
        </mxCell>
        <mxCell id="63e8v3MuR3NFdhU_vIlD-24" value="relation" style="edgeStyle=none;rounded=1;html=1;labelBackgroundColor=none;startArrow=none;startFill=0;startSize=5;endArrow=classicThin;endFill=1;endSize=5;jettySize=auto;orthogonalLoop=1;strokeColor=#B3B3B3;strokeWidth=1;fontFamily=Verdana;fontSize=12" edge="1" parent="1" target="63e8v3MuR3NFdhU_vIlD-23">
          <mxGeometry x="0.0068" relative="1" as="geometry">
            <mxPoint x="740" y="660" as="sourcePoint" />
            <mxPoint as="offset" />
          </mxGeometry>
        </mxCell>
        <mxCell id="63e8v3MuR3NFdhU_vIlD-25" value="&lt;span&gt;2-&lt;/span&gt;Recolección de requisitos" style="whiteSpace=wrap;html=1;rounded=1;shadow=1;comic=0;labelBackgroundColor=none;strokeWidth=2;fontFamily=Verdana;fontSize=12;align=center;arcSize=50;" vertex="1" parent="1">
          <mxGeometry x="1080" y="240" width="100" height="30" as="geometry" />
        </mxCell>
        <mxCell id="63e8v3MuR3NFdhU_vIlD-29" value="&lt;span&gt;5-&amp;nbsp;&lt;/span&gt;Documentación de requisitos" style="whiteSpace=wrap;html=1;rounded=1;shadow=1;comic=0;labelBackgroundColor=none;strokeWidth=2;fontFamily=Verdana;fontSize=12;align=center;arcSize=50;" vertex="1" parent="1">
          <mxGeometry x="810" y="390" width="130" height="30" as="geometry" />
        </mxCell>
        <mxCell id="63e8v3MuR3NFdhU_vIlD-31" value="1.Definición de alcance" style="whiteSpace=wrap;html=1;rounded=1;shadow=1;comic=0;labelBackgroundColor=none;strokeWidth=2;fontFamily=Verdana;fontSize=12;align=center;arcSize=50;" vertex="1" parent="1">
          <mxGeometry x="960" y="180" width="100" height="30" as="geometry" />
        </mxCell>
        <mxCell id="63e8v3MuR3NFdhU_vIlD-33" value="&lt;span&gt;4-&lt;/span&gt;Priorización de requisitos" style="whiteSpace=wrap;html=1;rounded=1;shadow=1;comic=0;labelBackgroundColor=none;strokeWidth=2;fontFamily=Verdana;fontSize=12;align=center;arcSize=50;" vertex="1" parent="1">
          <mxGeometry x="940" y="425" width="100" height="45" as="geometry" />
        </mxCell>
        <mxCell id="63e8v3MuR3NFdhU_vIlD-35" value="&lt;span&gt;3-&lt;/span&gt;Análisis de requisitos" style="whiteSpace=wrap;html=1;rounded=1;shadow=1;comic=0;labelBackgroundColor=none;strokeWidth=2;fontFamily=Verdana;fontSize=12;align=center;arcSize=50;" vertex="1" parent="1">
          <mxGeometry x="1070" y="350" width="100" height="40" as="geometry" />
        </mxCell>
        <mxCell id="63e8v3MuR3NFdhU_vIlD-41" value="relation" style="edgeStyle=none;rounded=1;html=1;labelBackgroundColor=none;startArrow=none;startFill=0;startSize=5;endArrow=classicThin;endFill=1;endSize=5;jettySize=auto;orthogonalLoop=1;strokeColor=#B3B3B3;strokeWidth=1;fontFamily=Verdana;fontSize=12;entryX=0.5;entryY=0;entryDx=0;entryDy=0;exitX=0.5;exitY=1;exitDx=0;exitDy=0;" edge="1" parent="1" source="2c924340bb9dbf6c-52" target="63e8v3MuR3NFdhU_vIlD-33">
          <mxGeometry relative="1" as="geometry">
            <mxPoint x="1068" y="370" as="sourcePoint" />
            <mxPoint x="970" y="380" as="targetPoint" />
            <Array as="points" />
          </mxGeometry>
        </mxCell>
        <mxCell id="63e8v3MuR3NFdhU_vIlD-43" value="relation" style="edgeStyle=none;rounded=1;html=1;labelBackgroundColor=none;startArrow=none;startFill=0;startSize=5;endArrow=classicThin;endFill=1;endSize=5;jettySize=auto;orthogonalLoop=1;strokeColor=#B3B3B3;strokeWidth=1;fontFamily=Verdana;fontSize=12;exitX=0.5;exitY=1;exitDx=0;exitDy=0;" edge="1" parent="1" source="63e8v3MuR3NFdhU_vIlD-31">
          <mxGeometry relative="1" as="geometry">
            <mxPoint x="1010" y="260" as="sourcePoint" />
            <mxPoint x="1010" y="270" as="targetPoint" />
            <Array as="points" />
          </mxGeometry>
        </mxCell>
        <mxCell id="63e8v3MuR3NFdhU_vIlD-44" value="relation" style="edgeStyle=none;rounded=1;html=1;labelBackgroundColor=none;startArrow=none;startFill=0;startSize=5;endArrow=classicThin;endFill=1;endSize=5;jettySize=auto;orthogonalLoop=1;strokeColor=#B3B3B3;strokeWidth=1;fontFamily=Verdana;fontSize=12;entryX=0;entryY=0.75;entryDx=0;entryDy=0;exitX=1;exitY=0;exitDx=0;exitDy=0;" edge="1" parent="1" source="2c924340bb9dbf6c-52" target="63e8v3MuR3NFdhU_vIlD-25">
          <mxGeometry relative="1" as="geometry">
            <mxPoint x="1030" y="380" as="sourcePoint" />
            <mxPoint x="1020" y="455" as="targetPoint" />
            <Array as="points" />
          </mxGeometry>
        </mxCell>
        <mxCell id="63e8v3MuR3NFdhU_vIlD-45" value="relation" style="edgeStyle=none;rounded=1;html=1;labelBackgroundColor=none;startArrow=none;startFill=0;startSize=5;endArrow=classicThin;endFill=1;endSize=5;jettySize=auto;orthogonalLoop=1;strokeColor=#B3B3B3;strokeWidth=1;fontFamily=Verdana;fontSize=12;entryX=0.36;entryY=-0.15;entryDx=0;entryDy=0;exitX=1;exitY=0.5;exitDx=0;exitDy=0;entryPerimeter=0;" edge="1" parent="1" source="2c924340bb9dbf6c-52" target="63e8v3MuR3NFdhU_vIlD-35">
          <mxGeometry relative="1" as="geometry">
            <mxPoint x="1040" y="390" as="sourcePoint" />
            <mxPoint x="1030" y="465" as="targetPoint" />
            <Array as="points" />
          </mxGeometry>
        </mxCell>
        <mxCell id="63e8v3MuR3NFdhU_vIlD-46" value="relation" style="edgeStyle=none;rounded=1;html=1;labelBackgroundColor=none;startArrow=none;startFill=0;startSize=5;endArrow=classicThin;endFill=1;endSize=5;jettySize=auto;orthogonalLoop=1;strokeColor=#B3B3B3;strokeWidth=1;fontFamily=Verdana;fontSize=12;entryX=0.61;entryY=-0.35;entryDx=0;entryDy=0;exitX=0;exitY=1;exitDx=0;exitDy=0;entryPerimeter=0;" edge="1" parent="1" source="2c924340bb9dbf6c-52" target="63e8v3MuR3NFdhU_vIlD-29">
          <mxGeometry relative="1" as="geometry">
            <mxPoint x="1010" y="360" as="sourcePoint" />
            <mxPoint x="1000" y="435" as="targetPoint" />
            <Array as="points" />
          </mxGeometry>
        </mxCell>
        <mxCell id="63e8v3MuR3NFdhU_vIlD-47" value="los métodos de documentación de requisitos" style="ellipse;whiteSpace=wrap;html=1;rounded=1;shadow=1;comic=0;labelBackgroundColor=none;strokeWidth=2;fontFamily=Verdana;fontSize=12;align=center;" vertex="1" parent="1">
          <mxGeometry x="240" y="580" width="120" height="80" as="geometry" />
        </mxCell>
        <mxCell id="63e8v3MuR3NFdhU_vIlD-48" value="Los beneficios de la gestión de requisitos" style="ellipse;whiteSpace=wrap;html=1;rounded=1;shadow=1;comic=0;labelBackgroundColor=none;strokeWidth=2;fontFamily=Verdana;fontSize=12;align=center;" vertex="1" parent="1">
          <mxGeometry x="290" y="690" width="120" height="80" as="geometry" />
        </mxCell>
        <mxCell id="63e8v3MuR3NFdhU_vIlD-50" value="&lt;span&gt;Topic 19&lt;/span&gt;" style="whiteSpace=wrap;html=1;rounded=1;shadow=1;comic=0;labelBackgroundColor=none;strokeWidth=2;fontFamily=Verdana;fontSize=12;align=center;arcSize=50;" vertex="1" parent="1">
          <mxGeometry x="630" y="700" width="100" height="20" as="geometry" />
        </mxCell>
        <mxCell id="63e8v3MuR3NFdhU_vIlD-51" value="relation" style="edgeStyle=none;rounded=1;html=1;labelBackgroundColor=none;startArrow=none;startFill=0;startSize=5;endArrow=classicThin;endFill=1;endSize=5;jettySize=auto;orthogonalLoop=1;strokeColor=#B3B3B3;strokeWidth=1;fontFamily=Verdana;fontSize=12" edge="1" parent="1" target="63e8v3MuR3NFdhU_vIlD-50">
          <mxGeometry x="0.0068" relative="1" as="geometry">
            <mxPoint x="740" y="660" as="sourcePoint" />
            <mxPoint as="offset" />
          </mxGeometry>
        </mxCell>
        <mxCell id="63e8v3MuR3NFdhU_vIlD-54" value="&lt;span&gt;Topic 19&lt;/span&gt;" style="whiteSpace=wrap;html=1;rounded=1;shadow=1;comic=0;labelBackgroundColor=none;strokeWidth=2;fontFamily=Verdana;fontSize=12;align=center;arcSize=50;" vertex="1" parent="1">
          <mxGeometry x="650" y="720" width="100" height="20" as="geometry" />
        </mxCell>
        <mxCell id="63e8v3MuR3NFdhU_vIlD-55" value="relation" style="edgeStyle=none;rounded=1;html=1;labelBackgroundColor=none;startArrow=none;startFill=0;startSize=5;endArrow=classicThin;endFill=1;endSize=5;jettySize=auto;orthogonalLoop=1;strokeColor=#B3B3B3;strokeWidth=1;fontFamily=Verdana;fontSize=12" edge="1" parent="1" target="63e8v3MuR3NFdhU_vIlD-54">
          <mxGeometry x="0.0068" relative="1" as="geometry">
            <mxPoint x="760" y="680" as="sourcePoint" />
            <mxPoint as="offset" />
          </mxGeometry>
        </mxCell>
        <mxCell id="63e8v3MuR3NFdhU_vIlD-56" value="&lt;span&gt;Topic 19&lt;/span&gt;" style="whiteSpace=wrap;html=1;rounded=1;shadow=1;comic=0;labelBackgroundColor=none;strokeWidth=2;fontFamily=Verdana;fontSize=12;align=center;arcSize=50;" vertex="1" parent="1">
          <mxGeometry x="660" y="730" width="100" height="20" as="geometry" />
        </mxCell>
        <mxCell id="63e8v3MuR3NFdhU_vIlD-57" value="relation" style="edgeStyle=none;rounded=1;html=1;labelBackgroundColor=none;startArrow=none;startFill=0;startSize=5;endArrow=classicThin;endFill=1;endSize=5;jettySize=auto;orthogonalLoop=1;strokeColor=#B3B3B3;strokeWidth=1;fontFamily=Verdana;fontSize=12" edge="1" parent="1" target="63e8v3MuR3NFdhU_vIlD-56">
          <mxGeometry x="0.0068" relative="1" as="geometry">
            <mxPoint x="770" y="690" as="sourcePoint" />
            <mxPoint as="offset" />
          </mxGeometry>
        </mxCell>
        <mxCell id="63e8v3MuR3NFdhU_vIlD-58" value="&lt;span&gt;Topic 19&lt;/span&gt;" style="whiteSpace=wrap;html=1;rounded=1;shadow=1;comic=0;labelBackgroundColor=none;strokeWidth=2;fontFamily=Verdana;fontSize=12;align=center;arcSize=50;" vertex="1" parent="1">
          <mxGeometry x="670" y="740" width="100" height="20" as="geometry" />
        </mxCell>
        <mxCell id="63e8v3MuR3NFdhU_vIlD-59" value="relation" style="edgeStyle=none;rounded=1;html=1;labelBackgroundColor=none;startArrow=none;startFill=0;startSize=5;endArrow=classicThin;endFill=1;endSize=5;jettySize=auto;orthogonalLoop=1;strokeColor=#B3B3B3;strokeWidth=1;fontFamily=Verdana;fontSize=12" edge="1" parent="1" target="63e8v3MuR3NFdhU_vIlD-58">
          <mxGeometry x="0.0068" relative="1" as="geometry">
            <mxPoint x="780" y="700" as="sourcePoint" />
            <mxPoint as="offset" />
          </mxGeometry>
        </mxCell>
        <mxCell id="63e8v3MuR3NFdhU_vIlD-60" value="&lt;span&gt;Topic 19&lt;/span&gt;" style="whiteSpace=wrap;html=1;rounded=1;shadow=1;comic=0;labelBackgroundColor=none;strokeWidth=2;fontFamily=Verdana;fontSize=12;align=center;arcSize=50;" vertex="1" parent="1">
          <mxGeometry x="680" y="750" width="100" height="20" as="geometry" />
        </mxCell>
        <mxCell id="63e8v3MuR3NFdhU_vIlD-61" value="relation" style="edgeStyle=none;rounded=1;html=1;labelBackgroundColor=none;startArrow=none;startFill=0;startSize=5;endArrow=classicThin;endFill=1;endSize=5;jettySize=auto;orthogonalLoop=1;strokeColor=#B3B3B3;strokeWidth=1;fontFamily=Verdana;fontSize=12" edge="1" parent="1" target="63e8v3MuR3NFdhU_vIlD-60">
          <mxGeometry x="0.0068" relative="1" as="geometry">
            <mxPoint x="790" y="710" as="sourcePoint" />
            <mxPoint as="offset" />
          </mxGeometry>
        </mxCell>
      </root>
    </mxGraphModel>
  </diagram>
</mxfile>
